<svg width="24.375000" height="32.000000" viewBox="0 0 24.375 32" fill="none" xmlns="http://www.w3.org/2000/svg" xmlns:xlink="http://www.w3.org/1999/xlink">
	<desc>
			Created with Pixso.
	</desc>
	<defs/>
	<path id="Vector" d="M12.18 0C8.57 0 5.62 2.94 5.62 6.56L5.62 7.5L0 7.5L0 32L24.37 32L24.37 7.5L18.75 7.5L18.75 6.56C18.75 2.94 15.8 0 12.18 0ZM7.5 6.56C7.5 3.97 9.6 1.87 12.18 1.87C14.77 1.87 16.87 3.97 16.87 6.56L16.87 7.5L7.5 7.5L7.5 6.56ZM22.5 9.37L22.5 30.12L1.87 30.12L1.87 9.37L5.62 9.37L5.62 13.12L7.5 13.12L7.5 9.37L16.87 9.37L16.87 13.12L18.75 13.12L18.75 9.37L22.5 9.37Z" fill="#000000" fill-opacity="1.000000" fill-rule="nonzero"/>
</svg>
