<svg width="57.593750" height="64.000000" viewBox="0 0 57.5938 64" fill="none" xmlns="http://www.w3.org/2000/svg" xmlns:xlink="http://www.w3.org/1999/xlink">
	<desc>
			Created with Pixso.
	</desc>
	<defs/>
	<path id="Vector" d="M45.67 31.43L50.14 31.43C51.14 31.43 51.96 30.61 51.96 29.6L51.96 25.13C51.96 24.12 51.14 23.3 50.14 23.3L45.67 23.3C44.66 23.3 43.84 24.12 43.84 25.13L43.84 29.6C43.84 30.61 44.66 31.43 45.67 31.43ZM45.71 25.18L50.09 25.18L50.09 29.55L45.71 29.55L45.71 25.18ZM45.67 43.3L50.14 43.3C51.14 43.3 51.96 42.48 51.96 41.47L51.96 37.01C51.96 36 51.14 35.18 50.14 35.18L45.67 35.18C44.66 35.18 43.84 36 43.84 37.01L43.84 41.47C43.84 42.48 44.66 43.3 45.67 43.3ZM45.71 37.05L50.09 37.05L50.09 41.43L45.71 41.43L45.71 37.05ZM32.93 31.43L37.39 31.43C38.4 31.43 39.22 30.61 39.22 29.6L39.22 25.13C39.22 24.12 38.4 23.3 37.39 23.3L32.93 23.3C31.92 23.3 31.1 24.12 31.1 25.13L31.1 29.6C31.1 30.61 31.92 31.43 32.93 31.43ZM32.97 25.18L37.35 25.18L37.35 29.55L32.97 29.55L32.97 25.18ZM11.92 46.5L7.45 46.5C6.44 46.5 5.62 47.32 5.62 48.33L5.62 52.79C5.62 53.8 6.44 54.62 7.45 54.62L11.92 54.62C12.92 54.62 13.75 53.8 13.75 52.79L13.75 48.33C13.75 47.32 12.92 46.5 11.92 46.5ZM11.87 52.75L7.5 52.75L7.5 48.37L11.87 48.37L11.87 52.75ZM11.92 23.3L7.45 23.3C6.44 23.3 5.62 24.12 5.62 25.13L5.62 29.6C5.62 30.61 6.44 31.43 7.45 31.43L11.92 31.43C12.92 31.43 13.75 30.61 13.75 29.6L13.75 25.13C13.75 24.12 12.92 23.3 11.92 23.3ZM11.87 29.55L7.5 29.55L7.5 25.18L11.87 25.18L11.87 29.55ZM32.93 43.02L37.39 43.02C38.4 43.02 39.22 42.2 39.22 41.19L39.22 36.73C39.22 35.72 38.4 34.9 37.39 34.9L32.93 34.9C31.92 34.9 31.1 35.72 31.1 36.73L31.1 41.19C31.1 42.2 31.92 43.02 32.93 43.02ZM32.97 36.77L37.35 36.77L37.35 41.15L32.97 41.15L32.97 36.77ZM52.89 4.28L48.89 4.28L48.89 2.85C48.89 1.27 47.6 0 46.03 0L45.6 0C44.03 0 42.75 1.27 42.75 2.85L42.75 4.28L14.83 4.28L14.83 2.85C14.83 1.27 13.55 0 11.98 0L11.55 0C9.98 0 8.7 1.27 8.7 2.85L8.7 4.28L4.69 4.28C2.1 4.28 0 6.39 0 8.97L0 59.31C0 61.89 2.1 64 4.68 64L52.9 64C55.49 64 57.59 61.89 57.59 59.31L57.59 8.97C57.59 6.39 55.48 4.28 52.89 4.28ZM44.63 2.85C44.63 2.31 45.07 1.87 45.6 1.87L46.03 1.87C46.57 1.87 47.01 2.31 47.01 2.85L47.01 4.28L44.63 4.28L44.63 2.85ZM10.57 2.85C10.57 2.31 11.01 1.87 11.55 1.87L11.98 1.87C12.52 1.87 12.96 2.31 12.96 2.85L12.96 4.28L10.57 4.28L10.57 2.85L10.57 2.85ZM55.71 59.31C55.71 60.86 54.45 62.12 52.9 62.12L4.68 62.12C3.13 62.12 1.87 60.86 1.87 59.31L1.87 59.3C2.66 59.89 3.64 60.25 4.69 60.25L42.7 60.25C43.96 60.25 45.13 59.76 46.02 58.87L55.71 49.17L55.71 59.31ZM45.07 57.17C45.14 56.87 45.17 56.56 45.17 56.23L45.17 49.97C45.17 48.79 46.14 47.83 47.32 47.83L53.57 47.83C53.9 47.83 54.21 47.79 54.52 47.72L45.07 57.17ZM55.71 17.68L15.77 17.68C15.25 17.68 14.83 18.1 14.83 18.61C14.83 19.13 15.25 19.55 15.77 19.55L55.71 19.55L55.71 43.82C55.71 45 54.75 45.96 53.57 45.96L47.32 45.96C45.1 45.96 43.3 47.76 43.3 49.97L43.3 56.23C43.3 57.41 42.34 58.37 41.16 58.37L4.69 58.37C3.14 58.37 1.87 57.11 1.87 55.55L1.87 19.55L12.02 19.55C12.53 19.55 12.96 19.13 12.96 18.61C12.96 18.1 12.53 17.68 12.02 17.68L1.87 17.68L1.87 8.97C1.87 7.42 3.14 6.16 4.69 6.16L8.7 6.16L8.7 8.91C8.7 10.48 9.98 11.76 11.55 11.76C12.07 11.76 12.49 11.34 12.49 10.83C12.49 10.31 12.07 9.89 11.55 9.89C11.01 9.89 10.57 9.45 10.57 8.91L10.57 6.16L42.75 6.16L42.75 8.91C42.75 10.48 44.03 11.76 45.6 11.76C46.12 11.76 46.54 11.34 46.54 10.83C46.54 10.31 46.12 9.89 45.6 9.89C45.07 9.89 44.63 9.45 44.63 8.91L44.63 6.16L52.89 6.16C54.45 6.16 55.71 7.42 55.71 8.97L55.71 17.68ZM11.92 34.9L7.45 34.9C6.44 34.9 5.62 35.72 5.62 36.73L5.62 41.19C5.62 42.2 6.44 43.02 7.45 43.02L11.92 43.02C12.92 43.02 13.75 42.2 13.75 41.19L13.75 36.73C13.75 35.72 12.92 34.9 11.92 34.9ZM11.87 41.15L7.5 41.15L7.5 36.77L11.87 36.77L11.87 41.15ZM20.19 31.43L24.65 31.43C25.67 31.43 26.49 30.61 26.49 29.6L26.49 25.13C26.49 24.12 25.67 23.3 24.65 23.3L20.19 23.3C19.18 23.3 18.36 24.12 18.36 25.13L18.36 29.6C18.36 30.61 19.18 31.43 20.19 31.43ZM20.24 25.18L24.61 25.18L24.61 29.55L20.24 29.55L20.24 25.18ZM32.97 52.75C32.95 52.25 32.54 51.85 32.03 51.85C31.52 51.85 31.1 52.27 31.1 52.79C31.1 53.8 31.92 54.62 32.93 54.62L37.39 54.62C38.4 54.62 39.22 53.8 39.22 52.79L39.22 48.33C39.22 47.32 38.4 46.5 37.39 46.5L32.93 46.5C31.92 46.5 31.1 47.32 31.1 48.33L31.1 49.61C31.1 50.13 31.52 50.55 32.03 50.55C32.56 50.55 32.97 50.13 32.97 49.61L32.97 48.37L37.35 48.37L37.35 52.75L32.97 52.75ZM20.19 43.02L24.65 43.02C25.67 43.02 26.49 42.2 26.49 41.19L26.49 36.73C26.49 35.72 25.67 34.9 24.65 34.9L20.19 34.9C19.18 34.9 18.36 35.72 18.36 36.73L18.36 41.19C18.36 42.2 19.18 43.02 20.19 43.02ZM20.24 36.77L24.61 36.77L24.61 41.15L20.24 41.15L20.24 36.77ZM20.19 54.62L24.65 54.62C25.67 54.62 26.49 53.8 26.49 52.79L26.49 48.33C26.49 47.32 25.67 46.5 24.65 46.5L20.19 46.5C19.18 46.5 18.36 47.32 18.36 48.33L18.36 52.79C18.36 53.8 19.18 54.62 20.19 54.62ZM20.24 48.37L24.61 48.37L24.61 52.75L20.24 52.75L20.24 48.37Z" fill="#CDB494" fill-opacity="1.000000" fill-rule="nonzero"/>
</svg>
