<svg width="62.000000" height="62.000000" viewBox="0 0 62 62" fill="none" xmlns="http://www.w3.org/2000/svg" xmlns:xlink="http://www.w3.org/1999/xlink">
	<desc>
			Created with Pixso.
	</desc>
	<defs>
		<clipPath id="clip17209_286">
			<rect id="data-copy 1" width="62.000000" height="62.000000" fill="white" fill-opacity="0"/>
		</clipPath>
	</defs>
	<rect id="data-copy 1" width="62.000000" height="62.000000" fill="#FFFFFF" fill-opacity="0"/>
	<g clip-path="url(#clip17209_286)">
		<path id="Vector" d="M25.2 3.87L12.01 3.87C11.37 3.88 10.74 4.03 10.15 4.31C9.57 4.58 9.06 4.98 8.64 5.47C8.23 5.96 7.92 6.54 7.75 7.16C7.57 7.78 7.53 8.43 7.64 9.06C7.64 9.32 7.74 9.56 7.92 9.74C8.1 9.92 8.35 10.02 8.6 10.02C8.85 10.02 9.1 9.92 9.28 9.74C9.46 9.56 9.57 9.32 9.57 9.06C9.35 7.48 10.26 5.79 12.01 5.81L21.46 5.81L21.46 8.45C21.47 9.39 21.84 10.28 22.5 10.94C23.16 11.6 24.06 11.97 24.99 11.97L27.64 11.97L27.64 28.93C27.64 29.58 27.38 30.2 26.92 30.66C26.46 31.11 25.85 31.37 25.2 31.37L12.01 31.37C11.36 31.37 10.75 31.11 10.28 30.66C9.83 30.2 9.57 29.58 9.57 28.93L9.57 12.94C9.57 12.68 9.46 12.44 9.28 12.26C9.1 12.08 8.85 11.98 8.6 11.98C8.35 11.98 8.1 12.08 7.92 12.26C7.75 12.44 7.64 12.68 7.64 12.94L7.64 28.93C7.64 30.09 8.1 31.21 8.92 32.03C9.74 32.85 10.85 33.31 12.01 33.31L25.2 33.31C26.35 33.31 27.47 32.85 28.29 32.03C29.11 31.21 29.57 30.09 29.57 28.93L29.57 8.25C29.57 7.09 29.11 5.98 28.29 5.15C27.47 4.33 26.35 3.87 25.2 3.87ZM27.64 10.04L24.99 10.04C24.57 10.04 24.17 9.87 23.87 9.57C23.57 9.27 23.4 8.87 23.4 8.45L23.4 5.81L25.2 5.81C25.85 5.81 26.46 6.07 26.92 6.52C27.38 6.98 27.64 7.6 27.64 8.25L27.64 10.04Z" fill="#CDB494" fill-opacity="1.000000" fill-rule="nonzero"/>
		<path id="Vector" d="M12.81 10.55L19.06 10.55C19.32 10.55 19.56 10.45 19.74 10.26C19.92 10.08 20.02 9.84 20.02 9.58C20.02 9.33 19.92 9.09 19.74 8.91C19.56 8.72 19.32 8.62 19.06 8.62L12.81 8.62C12.56 8.62 12.32 8.72 12.14 8.91C11.96 9.09 11.85 9.33 11.85 9.58C11.85 9.84 11.96 10.08 12.14 10.26C12.32 10.45 12.56 10.55 12.81 10.55Z" fill="#CDB494" fill-opacity="1.000000" fill-rule="nonzero"/>
		<path id="Vector" d="M12.81 15.06L22.31 15.06C22.56 15.05 22.8 14.95 22.98 14.77C23.16 14.58 23.26 14.34 23.26 14.09C23.26 13.83 23.16 13.59 22.98 13.41C22.8 13.23 22.56 13.12 22.31 13.12L12.81 13.12C12.56 13.12 12.32 13.23 12.14 13.41C11.96 13.59 11.85 13.83 11.85 14.09C11.85 14.34 11.96 14.58 12.14 14.77C12.32 14.95 12.56 15.05 12.81 15.06Z" fill="#CDB494" fill-opacity="1.000000" fill-rule="nonzero"/>
		<path id="Vector" d="M12.81 19.56L19.9 19.56C20.16 19.56 20.4 19.45 20.58 19.27C20.76 19.09 20.85 18.84 20.85 18.59C20.85 18.34 20.76 18.09 20.58 17.91C20.4 17.73 20.16 17.63 19.9 17.62L12.81 17.62C12.56 17.63 12.32 17.73 12.14 17.91C11.96 18.09 11.85 18.34 11.85 18.59C11.85 18.84 11.96 19.09 12.14 19.27C12.32 19.45 12.56 19.56 12.81 19.56Z" fill="#CDB494" fill-opacity="1.000000" fill-rule="nonzero"/>
		<path id="Vector" d="M12.81 24.06L22.05 24.06C22.31 24.06 22.55 23.96 22.73 23.77C22.91 23.59 23.01 23.35 23.01 23.09C23.01 22.84 22.91 22.6 22.73 22.41C22.55 22.23 22.31 22.13 22.05 22.13L12.81 22.13C12.56 22.13 12.32 22.23 12.14 22.41C11.96 22.6 11.85 22.84 11.85 23.09C11.85 23.35 11.96 23.59 12.14 23.77C12.32 23.96 12.56 24.06 12.81 24.06Z" fill="#CDB494" fill-opacity="1.000000" fill-rule="nonzero"/>
		<path id="Vector" d="M12.81 28.57L23.47 28.57C23.72 28.56 23.96 28.46 24.14 28.28C24.32 28.1 24.42 27.85 24.42 27.6C24.42 27.34 24.32 27.1 24.14 26.92C23.96 26.74 23.72 26.63 23.47 26.63L12.81 26.63C12.56 26.63 12.32 26.74 12.14 26.92C11.96 27.1 11.85 27.34 11.85 27.6C11.85 27.85 11.96 28.1 12.14 28.28C12.32 28.46 12.56 28.56 12.81 28.57Z" fill="#CDB494" fill-opacity="1.000000" fill-rule="nonzero"/>
		<path id="Vector" d="M50.01 28.68L36.82 28.68C36.09 28.68 35.36 28.87 34.72 29.23C34.08 29.59 33.55 30.12 33.17 30.75C32.58 31.87 32.33 33.13 32.44 34.4C32.44 34.65 32.54 34.9 32.73 35.08C32.91 35.26 33.16 35.36 33.41 35.36C33.67 35.36 33.92 35.26 34.1 35.08C34.28 34.9 34.38 34.65 34.38 34.4C34.25 33.48 34.39 32.54 34.78 31.71C35.01 31.38 35.32 31.1 35.67 30.91C36.03 30.72 36.42 30.62 36.82 30.62L46.28 30.62L46.28 33.26C46.28 34.19 46.65 35.09 47.31 35.75C47.97 36.41 48.86 36.78 49.8 36.78L52.45 36.78L52.45 53.74C52.45 54.39 52.19 55.01 51.73 55.47C51.28 55.92 50.65 56.18 50.01 56.18L36.82 56.18C36.17 56.18 35.56 55.92 35.1 55.47C34.64 55.01 34.38 54.39 34.38 53.74L34.38 38.27C34.38 38.02 34.28 37.77 34.09 37.59C33.91 37.41 33.67 37.32 33.41 37.32C33.16 37.32 32.92 37.41 32.73 37.59C32.55 37.77 32.45 38.02 32.44 38.27L32.44 53.74C32.45 54.9 32.91 56.02 33.73 56.84C34.55 57.66 35.66 58.12 36.82 58.12L50.01 58.12C51.17 58.12 52.28 57.66 53.1 56.84C53.92 56.02 54.39 54.9 54.39 53.74L54.39 33.06C54.39 31.9 53.92 30.79 53.1 29.96C52.28 29.14 51.17 28.68 50.01 28.68ZM52.45 34.85L49.8 34.85C49.38 34.85 48.98 34.68 48.68 34.38C48.39 34.08 48.21 33.68 48.21 33.26L48.21 30.62L50.01 30.62C50.65 30.62 51.28 30.88 51.73 31.33C52.19 31.79 52.45 32.41 52.45 33.06L52.45 34.85Z" fill="#CDB494" fill-opacity="1.000000" fill-rule="nonzero"/>
		<path id="Vector" d="M37.62 35.36L43.87 35.36C44.13 35.36 44.37 35.25 44.55 35.07C44.73 34.89 44.83 34.65 44.83 34.39C44.83 34.14 44.73 33.9 44.55 33.71C44.37 33.53 44.13 33.43 43.87 33.42L37.62 33.42C37.37 33.43 37.13 33.53 36.95 33.71C36.77 33.9 36.67 34.14 36.67 34.39C36.67 34.65 36.77 34.89 36.95 35.07C37.13 35.25 37.37 35.36 37.62 35.36Z" fill="#CDB494" fill-opacity="1.000000" fill-rule="nonzero"/>
		<path id="Vector" d="M37.62 39.87L47.12 39.87C47.37 39.86 47.61 39.76 47.79 39.58C47.97 39.4 48.07 39.15 48.07 38.9C48.07 38.64 47.97 38.4 47.79 38.22C47.61 38.04 47.37 37.93 47.12 37.93L37.62 37.93C37.37 37.93 37.13 38.04 36.95 38.22C36.77 38.4 36.67 38.64 36.67 38.9C36.67 39.15 36.77 39.4 36.95 39.58C37.13 39.76 37.37 39.86 37.62 39.87Z" fill="#CDB494" fill-opacity="1.000000" fill-rule="nonzero"/>
		<path id="Vector" d="M37.62 44.37L44.71 44.37C44.97 44.37 45.21 44.26 45.39 44.08C45.57 43.9 45.67 43.66 45.67 43.4C45.67 43.15 45.57 42.9 45.39 42.72C45.21 42.54 44.97 42.44 44.71 42.43L37.62 42.43C37.37 42.44 37.13 42.54 36.95 42.72C36.77 42.9 36.67 43.15 36.67 43.4C36.67 43.66 36.77 43.9 36.95 44.08C37.13 44.26 37.37 44.37 37.62 44.37Z" fill="#CDB494" fill-opacity="1.000000" fill-rule="nonzero"/>
		<path id="Vector" d="M37.62 48.87L46.86 48.87C47.12 48.87 47.36 48.77 47.54 48.58C47.72 48.4 47.82 48.16 47.82 47.91C47.82 47.65 47.72 47.41 47.54 47.23C47.36 47.04 47.12 46.94 46.86 46.94L37.62 46.94C37.37 46.94 37.13 47.04 36.95 47.23C36.77 47.41 36.67 47.65 36.67 47.91C36.67 48.16 36.77 48.4 36.95 48.58C37.13 48.77 37.37 48.87 37.62 48.87Z" fill="#CDB494" fill-opacity="1.000000" fill-rule="nonzero"/>
		<path id="Vector" d="M37.62 53.38L48.28 53.38C48.53 53.37 48.78 53.27 48.96 53.09C49.14 52.91 49.24 52.66 49.24 52.41C49.24 52.15 49.14 51.91 48.96 51.73C48.78 51.55 48.53 51.44 48.28 51.44L37.62 51.44C37.37 51.44 37.13 51.55 36.95 51.73C36.77 51.91 36.67 52.15 36.67 52.41C36.67 52.66 36.77 52.91 36.95 53.09C37.13 53.27 37.37 53.37 37.62 53.38Z" fill="#CDB494" fill-opacity="1.000000" fill-rule="nonzero"/>
		<path id="Vector" d="M25.58 49.4L15.85 49.4C15.61 49.39 15.38 49.3 15.2 49.12C15.03 48.95 14.92 48.71 14.92 48.46L14.92 39.92L17.15 42.14C17.33 42.32 17.57 42.41 17.83 42.41C18.08 42.41 18.32 42.31 18.5 42.13C18.68 41.95 18.78 41.71 18.79 41.45C18.79 41.2 18.69 40.95 18.52 40.77L15.33 37.58C14.96 37.22 14.47 37.01 13.96 37.01C13.45 37.01 12.96 37.22 12.59 37.58L9.4 40.77C9.22 40.95 9.13 41.2 9.13 41.45C9.13 41.71 9.23 41.95 9.41 42.13C9.59 42.31 9.83 42.41 10.09 42.41C10.34 42.41 10.59 42.32 10.77 42.14L12.99 39.92L12.99 48.46C12.99 49.22 13.29 49.95 13.83 50.49C14.37 51.03 15.1 51.33 15.85 51.33L25.58 51.33C25.84 51.33 26.08 51.23 26.26 51.04C26.44 50.86 26.54 50.62 26.54 50.36C26.54 50.11 26.44 49.86 26.26 49.68C26.08 49.5 25.84 49.4 25.58 49.4Z" fill="#CDB494" fill-opacity="1.000000" fill-rule="nonzero"/>
		<path id="Vector" d="M36.43 12.6L46.16 12.6C46.41 12.6 46.64 12.7 46.82 12.87C47 13.05 47.09 13.28 47.09 13.53L47.09 22.07L44.87 19.85C44.69 19.68 44.44 19.58 44.19 19.58C43.93 19.58 43.69 19.69 43.51 19.87C43.33 20.05 43.23 20.29 43.23 20.54C43.23 20.8 43.32 21.04 43.5 21.22L46.69 24.41C47.06 24.78 47.55 24.98 48.06 24.98C48.57 24.98 49.07 24.77 49.43 24.41L52.62 21.22C52.79 21.04 52.89 20.8 52.89 20.54C52.89 20.29 52.78 20.05 52.6 19.87C52.42 19.69 52.18 19.58 51.93 19.58C51.67 19.58 51.43 19.68 51.25 19.85L49.03 22.07L49.03 13.53C49.03 12.77 48.72 12.04 48.19 11.5C47.65 10.96 46.92 10.66 46.16 10.66L36.43 10.66C36.18 10.66 35.94 10.77 35.76 10.95C35.58 11.13 35.48 11.38 35.48 11.63C35.48 11.88 35.58 12.13 35.76 12.31C35.94 12.49 36.18 12.59 36.43 12.6Z" fill="#CDB494" fill-opacity="1.000000" fill-rule="nonzero"/>
		<path id="Vector 1" d="M56.5 1.6L5 61.35" stroke="#CDB494" stroke-opacity="1.000000" stroke-width="2.000000" stroke-linecap="round"/>
	</g>
</svg>
