<svg width="34.238281" height="36.000000" viewBox="0 0 34.2383 36" fill="none" xmlns="http://www.w3.org/2000/svg" xmlns:xlink="http://www.w3.org/1999/xlink">
	<desc>
			Created with Pixso.
	</desc>
	<defs/>
	<path id="Vector" d="M17.11 36L12.38 32.56L6.53 32.56L4.73 27L0 23.56L1.8 18L0 12.43L4.73 9L6.53 3.43L12.38 3.43L17.11 0L21.85 3.43L27.69 3.43L29.5 9L34.23 12.43L32.42 18L34.23 23.56L29.5 27L27.69 32.56L21.85 32.56L17.11 36ZM8.58 29.75L13.3 29.75L17.11 32.52L20.93 29.75L25.65 29.75L27.11 25.26L30.92 22.48L29.47 18L30.92 13.51L27.11 10.73L25.65 6.25L20.93 6.25L17.11 3.47L13.3 6.25L8.58 6.25L7.12 10.73L3.3 13.51L4.76 18L3.3 22.48L7.12 25.26L8.58 29.75ZM15.37 23.96L9.91 18.49L11.89 16.5L15.37 19.98L22.33 13.02L24.32 15.01L15.37 23.96Z" fill="#FFFFFF" fill-opacity="1.000000" fill-rule="nonzero"/>
</svg>
