<svg width="30.941406" height="36.000000" viewBox="0 0 30.9414 36" fill="none" xmlns="http://www.w3.org/2000/svg" xmlns:xlink="http://www.w3.org/1999/xlink">
	<desc>
			Created with Pixso.
	</desc>
	<defs/>
	<path id="Vector" d="M9.43 13.76L7.44 15.75L14.06 22.37L23.49 12.94L21.5 10.95L14.06 18.39L9.43 13.76ZM15.47 0L0 3.05L0 13.67C0 18.44 1.41 23.06 4.08 27.02C6.76 30.98 10.51 34.01 14.94 35.79L15.47 36L15.99 35.79C20.42 34.01 24.17 30.98 26.85 27.02C29.52 23.06 30.94 18.44 30.94 13.67L30.94 3.05L15.47 0ZM28.12 13.67C28.12 22.13 23.17 29.64 15.47 32.96C7.76 29.64 2.81 22.13 2.81 13.67L2.81 5.36L15.47 2.86L28.12 5.36L28.12 13.67Z" fill="#FFFFFF" fill-opacity="1.000000" fill-rule="nonzero"/>
</svg>
