<svg width="40.000000" height="24.925781" viewBox="0 0 40 24.9258" fill="none" xmlns="http://www.w3.org/2000/svg" xmlns:xlink="http://www.w3.org/1999/xlink">
	<desc>
			Created with Pixso.
	</desc>
	<defs/>
	<path id="XMLID_1598_" d="M40 11.09L35.61 3.12L31.2 3.12L31.2 0L3.61 0L3.61 4.71L0 4.71L0 7.05L3.61 7.05L3.61 9.2L0 9.2L0 11.55L3.61 11.55L3.61 13.66L0 13.66L0 16L3.61 16L3.61 18.42L1.71 18.42L1.71 20.76L8.45 20.76C8.65 23.09 10.6 24.92 12.98 24.92C15.36 24.92 17.32 23.09 17.51 20.76L25.5 20.76C25.69 23.09 27.65 24.92 30.03 24.92C32.41 24.92 34.36 23.09 34.56 20.76L40 20.76L40 11.09ZM36.84 10.22L31.2 10.22L31.2 5.46L34.23 5.46L36.84 10.22ZM12.98 22.58C11.76 22.58 10.78 21.59 10.78 20.37C10.78 19.16 11.76 18.16 12.98 18.16C14.2 18.16 15.19 19.16 15.19 20.37C15.19 21.59 14.2 22.58 12.98 22.58ZM25.92 18.42L17.09 18.42C16.36 16.89 14.79 15.82 12.98 15.82C11.17 15.82 9.6 16.89 8.87 18.42L5.96 18.42L5.96 16L8.19 16L8.19 13.66L5.96 13.66L5.96 11.55L14.65 11.55L14.65 9.2L5.96 9.2L5.96 7.05L8.66 7.05L8.66 4.71L5.96 4.71L5.96 2.34L28.86 2.34L28.86 15.98C27.56 16.32 26.49 17.23 25.92 18.42ZM30.03 22.58C28.81 22.58 27.82 21.59 27.82 20.37C27.82 19.16 28.81 18.16 30.03 18.16C31.25 18.16 32.23 19.16 32.23 20.37C32.23 21.59 31.25 22.58 30.03 22.58ZM34.14 18.42C33.57 17.23 32.5 16.32 31.2 15.98L31.2 12.57L33.25 12.57L33.25 14.83L35.6 14.83L35.6 12.57L37.65 12.57L37.65 18.42L34.14 18.42Z" fill="#FFFFFF" fill-opacity="1.000000" fill-rule="nonzero"/>
</svg>
