<svg width="36.000000" height="35.986328" viewBox="0 0 36 35.9863" fill="none" xmlns="http://www.w3.org/2000/svg" xmlns:xlink="http://www.w3.org/1999/xlink">
	<desc>
			Created with Pixso.
	</desc>
	<defs/>
	<path id="Vector" d="M14.64 7.94L0 22.57L10.43 33.01L14.15 29.3L13.55 34.22L28.21 35.98L30.65 15.71L25.43 9.07L26.87 7.63C28.91 8.98 31.7 8.76 33.51 6.96L35.07 5.39C36.3 4.16 36.3 2.15 35.07 0.92C33.83 -0.31 31.83 -0.31 30.6 0.92C29.46 2.06 24.69 6.83 23.58 7.94L14.64 7.94ZM2.98 22.57L15.51 10.05L22.99 10.05L22.99 17.49L10.44 30.03L2.98 22.57ZM28.46 16.33L26.37 33.64L15.9 32.38L16.57 26.89L25.1 18.37L25.1 12.06L28.46 16.33ZM32.09 2.41C32.5 2 33.17 2 33.58 2.41C33.99 2.82 33.99 3.49 33.58 3.9L32.02 5.46C31.05 6.44 29.59 6.64 28.42 6.08L32.09 2.41Z" fill="#FFFFFF" fill-opacity="1.000000" fill-rule="nonzero"/>
	<path id="Vector" d="M18.06 13.46L16.44 15.08C15.29 14.52 13.83 14.7 12.84 15.69C11.6 16.93 11.6 18.93 12.84 20.17C13.25 20.58 13.25 21.25 12.84 21.66C12.43 22.07 11.76 22.07 11.35 21.66C10.94 21.25 10.94 20.58 11.35 20.17L9.86 18.68C8.87 19.67 8.69 21.12 9.24 22.28L7.62 23.9L9.11 25.39L10.73 23.77C11.88 24.32 13.34 24.14 14.33 23.15C15.57 21.91 15.57 19.91 14.33 18.68C13.92 18.26 13.92 17.59 14.33 17.18C14.75 16.77 15.41 16.77 15.82 17.18C16.23 17.59 16.23 18.26 15.82 18.67L17.32 20.17C17.91 19.57 18.24 18.77 18.24 17.93C18.24 17.45 18.14 16.99 17.93 16.57L19.55 14.95L18.06 13.46Z" fill="#FFFFFF" fill-opacity="1.000000" fill-rule="nonzero"/>
</svg>
