<svg width="26.777344" height="36.000000" viewBox="0 0 26.7773 36" fill="none" xmlns="http://www.w3.org/2000/svg" xmlns:xlink="http://www.w3.org/1999/xlink">
	<desc>
			Created with Pixso.
	</desc>
	<defs/>
	<path id="XMLID_941_" d="M26.77 0L8.4 0L8.4 4.2L4.2 4.2L4.2 8.4L0 8.4L0 36L18.37 36L18.37 31.79L22.57 31.79L22.57 27.59L26.77 27.59L26.77 0ZM16.25 33.87L2.12 33.87L2.12 10.52L16.25 10.52L16.25 33.87ZM20.45 29.67L18.37 29.67L18.37 8.4L6.32 8.4L6.32 6.32L20.45 6.32L20.45 29.67L20.45 29.67ZM24.65 25.47L22.57 25.47L22.57 4.2L10.52 4.2L10.52 2.12L24.65 2.12L24.65 25.47Z" fill="#FFFFFF" fill-opacity="1.000000" fill-rule="nonzero"/>
	<path id="XMLID_949_" d="M14.13 12.54L4.23 12.54L4.23 22.79L14.13 22.79L14.13 12.54ZM12.01 20.67L6.35 20.67L6.35 14.66L12.01 14.66L12.01 20.67Z" fill="#FFFFFF" fill-opacity="1.000000" fill-rule="nonzero"/>
	<path id="XMLID_950_" d="M6.44 25.08L11.91 25.08L11.91 27.21L6.44 27.21L6.44 25.08Z" fill="#FFFFFF" fill-opacity="1.000000" fill-rule="nonzero"/>
	<path id="XMLID_951_" d="M6.44 29.53L11.91 29.53L11.91 31.65L6.44 31.65L6.44 29.53Z" fill="#FFFFFF" fill-opacity="1.000000" fill-rule="nonzero"/>
</svg>
