<svg width="53.000000" height="28.000000" viewBox="0 0 53 28" fill="none" xmlns="http://www.w3.org/2000/svg" xmlns:xlink="http://www.w3.org/1999/xlink">
	<desc>
			Created with Pixso.
	</desc>
	<defs/>
	<rect id="label" width="53.000000" height="28.000000" fill="#FF543D" fill-opacity="1.000000"/>
	<path id="хит" d="M18.33 20L20.52 20L16.92 14.52L20.26 9.28L18.21 9.28L15.8 13.28L13.36 9.28L11.25 9.28L14.58 14.44L11.02 20L13.06 20L15.7 15.72L18.33 20ZM23.67 9.28L21.93 9.28L21.93 20L24.19 20L29.52 11.52L29.58 11.52Q29.57 11.7 29.53 12.23Q29.5 12.75 29.47 13.4Q29.44 14.06 29.44 14.59L29.44 20L31.18 20L31.18 9.28L28.94 9.28L23.63 17.68L23.56 17.68Q23.6 17.5 23.62 16.99Q23.64 16.47 23.66 15.85Q23.67 15.22 23.67 14.73L23.67 9.28ZM35.88 20L37.8 20L37.8 10.91L40.87 10.91L40.87 9.28L32.81 9.28L32.81 10.91L35.88 10.91L35.88 20Z" fill="#FFFFFF" fill-opacity="1.000000" fill-rule="evenodd"/>
</svg>
