<svg width="64.000000" height="43.572266" viewBox="0 0 64 43.5723" fill="none" xmlns="http://www.w3.org/2000/svg" xmlns:xlink="http://www.w3.org/1999/xlink">
	<desc>
			Created with Pixso.
	</desc>
	<defs/>
	<path id="Vector" d="M63.43 2.79C63.07 2.49 62.6 2.37 62.14 2.45C62.14 2.45 62.14 2.45 62.14 2.45C59.53 2.94 56.05 3.43 50.12 3.43C42.4 3.43 38.64 2.61 34.67 1.74C30.78 0.88 26.75 0 18.82 0C16.1 0 13.71 0.1 11.5 0.3C10.68 0.38 10.07 1.05 10.07 1.87L10.07 11.38C9.63 11.37 9.18 11.37 8.73 11.37C6.03 11.37 3.64 11.47 1.42 11.68C0.6 11.75 0 12.42 0 13.24L0 38.86C0 39.3 0.18 39.72 0.5 40.02C0.83 40.32 1.27 40.46 1.71 40.42C3.83 40.23 6.13 40.13 8.73 40.13C16.46 40.13 20.21 40.96 24.19 41.83C27.9 42.65 31.74 43.49 38.94 43.57L38.95 43.57C39.46 43.57 39.89 43.16 39.89 42.64C39.89 42.12 39.48 41.7 38.96 41.69C31.95 41.62 28.38 40.83 24.59 40C20.69 39.14 16.67 38.26 8.73 38.26C6.21 38.26 3.96 38.35 1.87 38.53L1.87 13.52C3.95 13.33 6.2 13.24 8.73 13.24C9.18 13.24 9.63 13.25 10.07 13.25L10.07 15.17C9.36 15.16 8.55 15.16 7.82 15.16C7.3 15.17 6.89 15.59 6.89 16.1C6.89 17.3 5.91 18.28 4.71 18.29C4.21 18.29 3.78 18.71 3.78 19.23L3.78 24.02C3.78 24.54 4.21 24.96 4.72 24.96C5.25 24.96 5.66 24.54 5.66 24.02L5.66 20.05C7.14 19.69 8.3 18.51 8.65 17.04C9.14 17.03 9.63 17.04 10.07 17.04L10.07 27.49C10.07 27.93 10.26 28.35 10.59 28.65C10.91 28.94 11.35 29.09 11.79 29.05C13.91 28.86 16.21 28.76 18.82 28.76C19.08 28.76 19.34 28.76 19.6 28.76C19.75 31.44 20.6 33.83 21.9 35.57C18.67 34.95 14.74 34.46 8.7 34.47C8.53 33.74 8.16 33.07 7.61 32.53C7.07 31.98 6.39 31.62 5.66 31.45L5.66 28.41C5.66 27.89 5.25 27.47 4.72 27.47C4.21 27.47 3.78 27.89 3.78 28.41L3.78 32.28C3.78 32.53 3.89 32.77 4.07 32.95C4.24 33.12 4.48 33.22 4.72 33.22C4.73 33.22 4.74 33.22 4.75 33.22C5.33 33.22 5.88 33.45 6.29 33.86C6.71 34.27 6.93 34.82 6.93 35.41C6.93 35.66 7.03 35.9 7.21 36.07C7.39 36.25 7.63 36.34 7.88 36.34C15.7 36.23 21.16 37.23 25 38.13C28.87 38.98 32.53 39.78 40.04 39.78C42.39 39.78 44.46 39.7 46.39 39.54C46.87 39.5 47.25 39.1 47.25 38.61C47.25 37.46 48.12 36.52 49.26 36.43C49.75 36.39 50.12 35.98 50.12 35.5L50.12 32.2C50.79 32.2 51.43 32.19 52.04 32.18L52.04 40.72C50.1 41.08 47.36 41.5 43.31 41.64C42.79 41.66 42.39 42.09 42.4 42.61C42.42 43.12 42.84 43.52 43.34 43.52C43.35 43.52 43.36 43.52 43.37 43.52C47.73 43.36 50.61 42.9 52.64 42.51C53.38 42.38 53.92 41.73 53.92 40.97L53.92 32.13C57.89 31.96 60.57 31.55 62.71 31.14C63.46 31 64 30.35 64 29.6L64 4C64 3.53 63.79 3.09 63.43 2.79ZM26.96 36.54C24.16 36.54 21.77 33.08 21.48 28.8C26.33 28.93 29.42 29.44 32.28 30.03C31.65 33.79 29.43 36.54 26.96 36.54ZM45.46 37.73C43.82 37.85 42.03 37.91 40.04 37.91C35.79 37.91 32.81 37.64 30.32 37.26C30.87 36.85 31.4 36.34 31.88 35.73C32.98 34.31 33.77 32.45 34.12 30.43C37.83 31.24 41.43 32.05 48.25 32.18L48.25 34.72C46.84 35.15 45.78 36.29 45.46 37.73ZM62.12 29.35C59.47 29.84 55.96 30.33 50.12 30.33C42.4 30.33 38.64 29.5 34.67 28.63C30.78 27.77 26.75 26.89 18.82 26.89C16.28 26.89 14.03 26.97 11.95 27.16L11.95 2.14C14.02 1.96 16.27 1.87 18.82 1.87C26.54 1.87 30.29 2.69 34.27 3.57C38.17 4.42 42.2 5.31 50.12 5.31C55.96 5.31 59.59 4.82 62.12 4.36L62.12 29.35L62.12 29.35Z" fill="#CDB494" fill-opacity="1.000000" fill-rule="nonzero"/>
	<path id="Vector" d="M33.86 5.44C30.14 4.56 25.1 3.67 17.9 3.79C17.39 3.8 16.97 4.21 16.97 4.73C16.97 5.92 16 6.91 14.8 6.92C14.28 6.92 13.87 7.34 13.87 7.85L13.87 20.91C13.87 21.16 13.97 21.4 14.14 21.58C14.32 21.75 14.56 21.85 14.81 21.85C14.82 21.85 14.82 21.85 14.83 21.85C15.41 21.85 15.96 22.07 16.37 22.48C16.79 22.9 17.02 23.45 17.02 24.03C17.02 24.28 17.12 24.52 17.29 24.7C17.47 24.88 17.71 24.97 17.96 24.97C19.43 24.96 21 24.98 22.39 25.03C22.89 25.03 23.31 24.64 23.32 24.13C23.35 23.61 22.94 23.18 22.42 23.16C21.28 23.11 20.04 23.09 18.78 23.09C18.61 22.36 18.24 21.69 17.7 21.15C17.15 20.61 16.48 20.24 15.75 20.08L15.75 8.67C17.22 8.31 18.39 7.14 18.74 5.66C26.18 5.66 29.73 6.45 33.68 7.32C32.96 7.84 32.29 8.53 31.71 9.38C30.39 11.32 29.65 13.86 29.65 16.56C29.65 19.56 30.55 22.28 31.98 24.19C30.46 23.91 28.81 23.65 26.85 23.45C26.33 23.4 25.87 23.78 25.82 24.29C25.77 24.81 26.14 25.27 26.66 25.32C30.1 25.66 32.62 26.21 35.06 26.75C38.96 27.6 42.59 28.41 50.13 28.41C52.47 28.41 54.55 28.33 56.47 28.17C56.96 28.13 57.33 27.73 57.33 27.24C57.33 26.09 58.2 25.15 59.35 25.06C59.83 25.02 60.21 24.61 60.21 24.12L60.21 11.1C60.21 10.84 60.1 10.59 59.91 10.42C59.72 10.24 59.46 10.15 59.21 10.16C58.6 10.21 58.01 10 57.57 9.58C57.12 9.16 56.88 8.59 56.88 7.99C56.88 7.73 56.78 7.48 56.58 7.3C56.39 7.12 56.14 7.03 55.88 7.05C54.1 7.16 52.16 7.23 50.13 7.23C41.99 7.23 37.85 6.32 33.86 5.44ZM56.28 10.94C56.85 11.48 57.57 11.84 58.33 11.98L58.33 23.35C56.95 23.78 55.88 24.94 55.56 26.36C53.9 26.48 52.11 26.53 50.13 26.53C45.89 26.53 42.91 26.27 40.42 25.89C42.66 24.24 44.25 20.99 44.41 17.18C44.43 16.66 44.03 16.23 43.51 16.2C43 16.18 42.56 16.58 42.53 17.1C42.35 21.55 39.88 25.18 37.04 25.18C34.05 25.18 31.53 21.23 31.53 16.56C31.53 11.96 34.05 8.08 37.04 8.08C39.16 8.08 41.12 10.02 42.03 13.01C42.18 13.51 42.71 13.79 43.21 13.64C43.7 13.49 43.98 12.96 43.82 12.47C43.38 10.99 42.7 9.72 41.87 8.72C44.14 8.95 46.81 9.1 50.13 9.1C51.87 9.1 53.55 9.06 55.13 8.97C55.32 9.72 55.71 10.41 56.28 10.94Z" fill="#CDB494" fill-opacity="1.000000" fill-rule="nonzero"/>
	<path id="Vector" d="M48.5 17.66C48.5 18.17 48.92 18.59 49.43 18.59L53.32 18.59C53.83 18.59 54.25 18.17 54.25 17.66C54.25 17.14 53.83 16.72 53.32 16.72L49.43 16.72C48.92 16.72 48.5 17.14 48.5 17.66Z" fill="#CDB494" fill-opacity="1.000000" fill-rule="nonzero"/>
	<path id="Vector" d="M24.64 13.44L20.75 13.44C20.24 13.44 19.82 13.86 19.82 14.38C19.82 14.9 20.24 15.32 20.75 15.32L24.64 15.32C25.15 15.32 25.57 14.9 25.57 14.38C25.57 13.86 25.15 13.44 24.64 13.44Z" fill="#CDB494" fill-opacity="1.000000" fill-rule="nonzero"/>
</svg>
