<svg width="23.960938" height="23.960938" viewBox="0 0 23.9609 23.9609" fill="none" xmlns="http://www.w3.org/2000/svg" xmlns:xlink="http://www.w3.org/1999/xlink">
	<desc>
			Created with Pixso.
	</desc>
	<defs/>
	<path id="Vector" d="M12.96 1C12.96 0.73 13.06 0.48 13.25 0.29C13.43 0.1 13.69 0 13.96 0C16.6 0 19.15 1.05 21.03 2.93C22.9 4.8 23.96 7.34 23.96 10C23.96 10.26 23.85 10.52 23.67 10.7C23.48 10.89 23.22 11 22.96 11C22.69 11 22.43 10.89 22.25 10.7C22.06 10.52 21.96 10.26 21.96 10C21.96 7.88 21.11 5.84 19.61 4.34C18.11 2.84 16.07 2 13.96 2C13.69 2 13.43 1.89 13.25 1.7C13.06 1.52 12.96 1.26 12.96 1ZM13.96 6C15.02 6 16.03 6.42 16.78 7.17C17.53 7.92 17.96 8.94 17.96 10C17.96 10.26 18.06 10.52 18.25 10.7C18.43 10.89 18.69 11 18.96 11C19.22 11 19.48 10.89 19.67 10.7C19.85 10.52 19.96 10.26 19.96 10C19.96 8.41 19.32 6.88 18.2 5.75C17.07 4.63 15.55 4 13.96 4C13.69 4 13.43 4.1 13.25 4.29C13.06 4.48 12.96 4.73 12.96 5C12.96 5.26 13.06 5.52 13.25 5.7C13.43 5.89 13.69 6 13.96 6ZM23.05 16.74C23.63 17.32 23.96 18.1 23.96 18.92C23.96 19.75 23.63 20.53 23.05 21.11L22.14 22.16C13.95 30 -5.98 10.08 1.74 1.86L2.89 0.86C3.47 0.3 4.25 -0.01 5.06 0C5.87 0 6.64 0.33 7.21 0.9C7.25 0.93 9.1 3.34 9.1 3.34C9.65 3.92 9.96 4.69 9.96 5.48C9.96 6.28 9.64 7.05 9.1 7.62L7.93 9.08C8.57 10.64 9.52 12.05 10.71 13.24C11.89 14.43 13.31 15.38 14.86 16.02L16.33 14.86C16.91 14.31 17.67 14 18.47 14C19.27 14 20.03 14.3 20.61 14.85C20.61 14.85 23.02 16.7 23.05 16.74ZM21.67 18.19C21.67 18.19 19.28 16.35 19.25 16.32C19.04 16.11 18.77 16 18.47 16C18.18 16 17.91 16.11 17.7 16.32C17.67 16.35 15.66 17.95 15.66 17.95C15.52 18.06 15.35 18.13 15.19 18.16C15.02 18.18 14.84 18.17 14.67 18.1C12.66 17.35 10.83 16.18 9.31 14.66C7.78 13.14 6.61 11.31 5.85 9.3C5.79 9.13 5.77 8.95 5.79 8.78C5.82 8.6 5.89 8.43 6 8.3C6 8.3 7.6 6.28 7.64 6.25C7.84 6.05 7.96 5.77 7.96 5.48C7.96 5.19 7.84 4.91 7.64 4.7C7.6 4.67 5.76 2.28 5.76 2.28C5.56 2.09 5.28 1.99 5 2C4.72 2 4.46 2.12 4.25 2.32L3.1 3.32C-2.54 10.1 14.73 26.41 20.67 20.8L21.59 19.75C21.8 19.55 21.93 19.28 21.95 18.99C21.96 18.69 21.86 18.41 21.67 18.19Z" fill="#CDB494" fill-opacity="1.000000" fill-rule="nonzero"/>
</svg>
