<svg width="13.996094" height="14.000000" viewBox="0 0 13.9961 14" fill="none" xmlns="http://www.w3.org/2000/svg" xmlns:xlink="http://www.w3.org/1999/xlink">
	<desc>
			Created with Pixso.
	</desc>
	<defs/>
	<path id="Vector" d="M13.74 12.5L11.03 9.79C13.06 7.08 12.5 3.25 9.8 1.22C7.08 -0.81 3.25 -0.26 1.22 2.45C-0.81 5.16 -0.26 9 2.45 11.03C4.63 12.66 7.62 12.66 9.8 11.03L12.5 13.74C12.85 14.08 13.4 14.08 13.74 13.74C14.08 13.4 14.08 12.85 13.74 12.51L13.74 12.5ZM6.14 10.5C3.74 10.5 1.78 8.55 1.78 6.15C1.78 3.74 3.74 1.79 6.14 1.79C8.55 1.79 10.51 3.74 10.51 6.15C10.5 8.55 8.55 10.5 6.14 10.5Z" fill="#CDB494" fill-opacity="1.000000" fill-rule="nonzero"/>
</svg>
