<svg width="24.000000" height="24.000000" viewBox="0 0 24 24" fill="none" xmlns="http://www.w3.org/2000/svg" xmlns:xlink="http://www.w3.org/1999/xlink">
	<desc>
			Created with Pixso.
	</desc>
	<defs/>
	<path id="Vector" d="M12 24C5.38 24 0 18.61 0 12C0 5.38 5.38 0 12 0C18.61 0 24 5.38 24 12C24 18.61 18.61 24 12 24ZM12 2C6.48 2 2 6.48 2 12C2 17.51 6.48 22 12 22C17.51 22 22 17.51 22 12C22 6.48 17.51 2 12 2ZM17 12C17 11.44 16.55 11 16 11L13 11L13 6C13 5.44 12.55 5 12 5C11.44 5 11 5.44 11 6L11 12C11 12.55 11.44 13 12 13L16 13C16.55 13 17 12.55 17 12Z" fill="#CDB494" fill-opacity="1.000000" fill-rule="nonzero"/>
</svg>
