<svg width="17.011719" height="9.769531" viewBox="0 0 17.0117 9.76953" fill="none" xmlns="http://www.w3.org/2000/svg" xmlns:xlink="http://www.w3.org/1999/xlink">
	<desc>
			Created with Pixso.
	</desc>
	<defs/>
	<path id="icon" d="M16.35 9.74C15.95 9.8 14.01 9.74 13.91 9.74C13.41 9.75 12.93 9.55 12.57 9.21C12.16 8.81 11.79 8.38 11.4 7.97C11.28 7.84 11.16 7.73 11.02 7.62C10.7 7.38 10.38 7.43 10.23 7.81C10.12 8.22 10.03 8.63 9.99 9.06C9.98 9.23 9.91 9.4 9.78 9.52C9.65 9.64 9.48 9.71 9.3 9.7C9.03 9.71 8.77 9.72 8.51 9.71C7.55 9.71 6.62 9.48 5.77 9.04C4.86 8.53 4.06 7.83 3.43 7C2.43 5.67 1.56 4.25 0.84 2.75C0.8 2.67 0.05 1.07 0.03 1C-0.01 0.89 -0.02 0.77 0.02 0.66C0.06 0.55 0.14 0.46 0.24 0.41C0.37 0.36 2.86 0.41 2.9 0.41C3.08 0.41 3.27 0.47 3.42 0.58C3.57 0.68 3.68 0.84 3.74 1.01C4.19 2.19 4.82 3.28 5.6 4.28C5.71 4.41 5.83 4.53 5.98 4.62C6.01 4.66 6.06 4.68 6.11 4.69C6.16 4.71 6.21 4.71 6.26 4.69C6.31 4.67 6.35 4.65 6.39 4.61C6.42 4.57 6.44 4.53 6.46 4.48C6.55 4.15 6.61 3.82 6.63 3.48C6.64 2.81 6.63 2.36 6.59 1.69C6.6 1.46 6.53 1.24 6.37 1.07C6.23 0.89 6.01 0.79 5.78 0.77C5.58 0.74 5.56 0.58 5.69 0.42C5.96 0.08 6.32 0.03 6.71 0.01C7.31 -0.02 7.91 0.01 8.5 0.01L8.63 0.01C8.89 0.01 9.16 0.04 9.41 0.09C9.56 0.12 9.7 0.2 9.8 0.31C9.9 0.43 9.96 0.57 9.98 0.72C10.01 0.89 10.02 1.06 10.02 1.24C10 1.97 9.97 2.7 9.96 3.43C9.95 3.72 9.98 4.01 10.04 4.3C10.12 4.68 10.39 4.78 10.66 4.5C11 4.13 11.32 3.74 11.6 3.33C12.1 2.58 12.52 1.77 12.83 0.93C13.01 0.49 13.14 0.4 13.61 0.4L16.25 0.4C16.4 0.39 16.56 0.41 16.71 0.46C16.76 0.47 16.81 0.5 16.85 0.53C16.9 0.57 16.94 0.61 16.96 0.66C16.99 0.71 17 0.76 17.01 0.82C17.01 0.87 17 0.93 16.99 0.98C16.83 1.54 16.57 2.06 16.21 2.52C15.67 3.28 15.11 4.02 14.56 4.76C14.49 4.85 14.42 4.96 14.37 5.06C14.16 5.43 14.18 5.64 14.48 5.96C14.95 6.45 15.46 6.91 15.92 7.42C16.26 7.78 16.57 8.18 16.84 8.6C17.18 9.15 16.98 9.65 16.35 9.74Z" fill="#FFFFFF" fill-opacity="1.000000" fill-rule="nonzero"/>
</svg>
