<svg width="40.000000" height="40.000000" viewBox="0 0 40 40" fill="none" xmlns="http://www.w3.org/2000/svg" xmlns:xlink="http://www.w3.org/1999/xlink">
	<desc>
			Created with Pixso.
	</desc>
	<defs/>
	<path id="background" d="M40 20C40 31.04 31.04 40 20 40C8.95 40 0 31.04 0 20C0 8.95 8.95 0 20 0C31.04 0 40 8.95 40 20Z" fill="#4065D6" fill-opacity="1.000000" fill-rule="evenodd"/>
	<path id="icon" d="M29.21 25.71C28.75 25.78 26.47 25.71 26.35 25.71C25.77 25.72 25.2 25.49 24.78 25.08C24.29 24.62 23.86 24.11 23.4 23.63C23.26 23.48 23.1 23.34 22.95 23.22C22.57 22.93 22.2 23 22.03 23.44C21.89 23.92 21.79 24.41 21.74 24.91C21.73 25.11 21.64 25.31 21.49 25.45C21.33 25.59 21.13 25.67 20.92 25.66C20.61 25.68 20.3 25.69 20 25.68C18.87 25.67 17.77 25.4 16.78 24.89C15.7 24.29 14.76 23.47 14.03 22.48C12.85 20.92 11.82 19.25 10.98 17.48C10.93 17.39 10.05 15.51 10.03 15.42C9.97 15.3 9.96 15.16 10.01 15.03C10.06 14.9 10.15 14.8 10.27 14.74C10.42 14.68 13.35 14.74 13.4 14.74C13.62 14.73 13.83 14.8 14 14.93C14.18 15.06 14.32 15.24 14.38 15.44C14.92 16.82 15.66 18.12 16.57 19.28C16.7 19.44 16.85 19.58 17.02 19.69C17.06 19.73 17.11 19.76 17.17 19.77C17.23 19.79 17.29 19.79 17.35 19.77C17.41 19.75 17.46 19.72 17.5 19.67C17.54 19.63 17.57 19.58 17.58 19.52C17.7 19.14 17.76 18.74 17.78 18.35C17.8 17.56 17.78 17.03 17.74 16.24C17.75 15.97 17.67 15.71 17.49 15.5C17.31 15.3 17.06 15.18 16.78 15.16C16.56 15.12 16.53 14.93 16.68 14.74C17 14.35 17.42 14.29 17.89 14.26C18.58 14.22 19.28 14.26 19.99 14.26L20.14 14.26C20.45 14.26 20.76 14.29 21.06 14.35C21.24 14.39 21.39 14.48 21.52 14.62C21.64 14.75 21.71 14.92 21.72 15.1C21.76 15.3 21.78 15.5 21.77 15.7C21.75 16.57 21.71 17.43 21.7 18.29C21.7 18.63 21.73 18.97 21.79 19.31C21.89 19.76 22.21 19.88 22.53 19.54C22.93 19.11 23.3 18.66 23.63 18.17C24.22 17.29 24.71 16.34 25.09 15.34C25.28 14.83 25.44 14.72 26 14.72L29.1 14.72C29.28 14.71 29.46 14.74 29.64 14.79C29.71 14.81 29.77 14.84 29.82 14.88C29.87 14.92 29.91 14.97 29.94 15.03C29.97 15.08 29.99 15.15 30 15.21C30 15.28 29.99 15.34 29.97 15.4C29.79 16.06 29.48 16.68 29.06 17.22C28.42 18.11 27.76 18.98 27.11 19.85C27.03 19.96 26.96 20.08 26.89 20.2C26.64 20.64 26.67 20.89 27.01 21.26C27.58 21.84 28.18 22.38 28.72 22.98C29.12 23.41 29.48 23.88 29.8 24.37C30.2 25.01 29.96 25.6 29.21 25.71Z" fill="#FFFFFF" fill-opacity="1.000000" fill-rule="nonzero"/>
</svg>
