<svg width="17.011719" height="12.421875" viewBox="0 0 17.0117 12.4219" fill="none" xmlns="http://www.w3.org/2000/svg" xmlns:xlink="http://www.w3.org/1999/xlink">
	<desc>
			Created with Pixso.
	</desc>
	<defs/>
	<path id="icon" d="M16.6 2.12C16.26 1.06 15.14 0.44 14.1 0.29C10.37 -0.1 6.62 -0.1 2.89 0.29C1.86 0.44 0.73 1.07 0.39 2.12C-0.14 4.82 -0.14 7.6 0.39 10.3C0.74 11.35 1.87 11.98 2.91 12.12C6.64 12.52 10.39 12.52 14.11 12.12C15.15 11.98 16.27 11.34 16.62 10.3C17.14 7.6 17.14 4.82 16.6 2.12ZM6.47 9.46L6.47 2.95L11.77 6.21C9.99 7.3 8.25 8.37 6.47 9.46Z" fill="#FFFFFF" fill-opacity="1.000000" fill-rule="nonzero"/>
</svg>
